<svg width="23" height="20" viewBox="0 0 23 20" fill="none" xmlns="http://www.w3.org/2000/svg">
<path d="M22.7584 0.883415C22.7801 0.753052 22.7674 0.619291 22.7215 0.495366C22.6756 0.371442 22.5981 0.261649 22.4967 0.176852C22.3954 0.0920546 22.2736 0.0351923 22.1436 0.0118911C22.0135 -0.01141 21.8796 -0.000342224 21.7551 0.0439992L0.504046 7.63365C0.363968 7.6836 0.241651 7.77361 0.152291 7.89248C0.0629304 8.01136 0.0104638 8.15387 0.00140855 8.30231C-0.00764673 8.45076 0.0271083 8.59859 0.101357 8.72744C0.175605 8.8563 0.286074 8.96051 0.419042 9.02711L6.49076 12.063C6.61042 12.1229 6.74379 12.1501 6.87734 12.1418C7.01089 12.1335 7.13989 12.0901 7.25125 12.0159L12.2908 8.65522L9.27465 12.4288C9.20901 12.5109 9.16116 12.6058 9.13412 12.7074C9.10708 12.809 9.10144 12.9151 9.11757 13.019C9.13369 13.1229 9.17123 13.2223 9.2278 13.3109C9.28437 13.3996 9.35873 13.4755 9.44618 13.5339L18.5538 19.6056C18.6592 19.6757 18.7806 19.7183 18.9067 19.7295C19.0329 19.7408 19.1598 19.7202 19.276 19.6698C19.3922 19.6194 19.4939 19.5408 19.5719 19.441C19.6499 19.3412 19.7017 19.2235 19.7226 19.0986L22.7584 0.883415Z" fill="black"/>
</svg>
